# xmcd
#
# Track frame offsets:
#	150
#	15350
#	28305
#	42885
#	57485
#	71132
#	81767
#	96635
#	110267
#	124667
#	137900
#	151572
#	166808
#	178452
#
# Disc length: 2581 seconds
#
# Revision: 0
# Processed by: cddbd v1.5.1PL0 Copyright (c) Steve Scherf et al.
# Submitted via: EasyCDDAExtractor 8.0.2.1
#
DISCID=bd0a130e
DTITLE=Various Artist - Goldene Volksmusik Parade 3/1998
DYEAR=1998
DGENRE=Volksmusik
TTITLE0=Kastelruther Spatzen - Und Wieder Blüh'n Die Alpenrosen
TTITLE1=Eva-Maria - Sonnenschein Im Herzen
TTITLE2=Donaumooser - Oh Katharina
TTITLE3=Carriere - Nenn' Es Wie Du Willst
TTITLE4=Raabtal Dirndln - Nimm Mich Mit
TTITLE5=Bachler Buam - Musik Ist Uns're Leidenschaft
TTITLE6=Junge Zillertaler - Wir Sind Stolz Auf Uns're Heimat
TTITLE7=Zellberg Buam - A Starkes Land Und Starke Leut'
TTITLE8=Oswald Sattler - Die Prinzessin Der Dolomiten
TTITLE9=Atlantis - Ich Brauch Keinen Engel
TTITLE10=Dolomiten Sextett - Breiteggpolka
TTITLE11=Original Alpenland Quintett - Vielleicht Schon Morgen
TTITLE12=Rieserferner - Vergesst Heut Eure Sorgen
TTITLE13=Mölltaler - Dankschön, Liaber Bauer
EXTD=
EXTT0=
EXTT1=
EXTT2=
EXTT3=
EXTT4=
EXTT5=
EXTT6=
EXTT7=
EXTT8=
EXTT9=
EXTT10=
EXTT11=
EXTT12=
EXTT13=
PLAYORDER=
